<svg width="35" height="35" xmlns="http://www.w3.org/2000/svg" xmlns:xlink="http://www.w3.org/1999/xlink" xml:space="preserve" overflow="hidden"><g transform="translate(-46 -1055)"><path d="M48.9167 1062.29 48.9167 1082.71 78.0833 1082.71 78.0833 1062.29 48.9167 1062.29ZM64.0104 1075.02C63.7188 1075.31 63.2812 1075.31 62.9896 1075.02L52.1979 1064.48 74.8385 1064.48 64.0104 1075.02ZM58.2135 1072.39 51.1042 1079.54 51.1042 1065.43 58.2135 1072.39ZM59.2708 1073.41 62.0052 1076.07C62.4427 1076.47 62.9896 1076.69 63.5365 1076.69 64.0833 1076.69 64.6302 1076.47 65.0677 1076.07L67.8021 1073.41 74.875 1080.52 52.1615 1080.52 59.2708 1073.41ZM68.7865 1072.39 75.8958 1065.46 75.8958 1079.5 68.7865 1072.39Z"/></g></svg>